<mxfile host="www.draw.io" modified="2019-10-30T02:10:17.550Z" agent="Mozilla/5.0 (Macintosh; Intel Mac OS X 10_13_6) AppleWebKit/537.36 (KHTML, like Gecko) Chrome/78.0.3904.70 Safari/537.36" etag="wBpw0vaq27AQOMHCWL3_" version="12.1.8" type="github" pages="1">
  <diagram id="6RX0e2kDy7hBkQ7xsXD0" name="第 1 页">
    <mxGraphModel dx="718" dy="380" grid="1" gridSize="10" guides="1" tooltips="1" connect="1" arrows="1" fold="1" page="1" pageScale="1" pageWidth="827" pageHeight="1169" math="0" shadow="0">
      <root>
        <mxCell id="0"/>
        <mxCell id="1" parent="0"/>
        <mxCell id="6CDFZP7cAiHO_fOxt2nF-1" value="" style="shape=cylinder;whiteSpace=wrap;html=1;boundedLbl=1;backgroundOutline=1;" vertex="1" parent="1">
          <mxGeometry x="300" y="530" width="60" height="80" as="geometry"/>
        </mxCell>
        <mxCell id="6CDFZP7cAiHO_fOxt2nF-2" value="" style="ellipse;whiteSpace=wrap;html=1;" vertex="1" parent="1">
          <mxGeometry x="270" y="350" width="120" height="80" as="geometry"/>
        </mxCell>
        <mxCell id="6CDFZP7cAiHO_fOxt2nF-3" value="" style="endArrow=classic;startArrow=classic;html=1;" edge="1" parent="1">
          <mxGeometry width="50" height="50" relative="1" as="geometry">
            <mxPoint x="340" y="520" as="sourcePoint"/>
            <mxPoint x="340" y="440" as="targetPoint"/>
          </mxGeometry>
        </mxCell>
        <mxCell id="6CDFZP7cAiHO_fOxt2nF-4" value="" style="endArrow=classic;html=1;" edge="1" parent="1">
          <mxGeometry width="50" height="50" relative="1" as="geometry">
            <mxPoint x="260" y="760" as="sourcePoint"/>
            <mxPoint x="310" y="710" as="targetPoint"/>
          </mxGeometry>
        </mxCell>
      </root>
    </mxGraphModel>
  </diagram>
</mxfile>
